<svg width="125" height="125" viewBox="0 0 125 125" fill="none" xmlns="http://www.w3.org/2000/svg">
<path d="M63.0375 111.738C88.567 111.738 109.263 91.0421 109.263 65.5125C109.263 39.9829 88.567 19.2871 63.0375 19.2871C37.508 19.2871 16.8122 39.9829 16.8122 65.5125C16.8122 91.0421 37.508 111.738 63.0375 111.738Z" fill="white" stroke="#263238" stroke-width="0.78783" stroke-miterlimit="10"/>
<path d="M102.528 89.5447C98.38 96.3601 92.539 101.986 85.5727 105.875C78.6065 109.764 70.7523 111.784 62.7741 111.738C54.796 111.692 46.9655 109.582 40.0445 105.613C33.1235 101.644 27.3476 95.9514 23.2786 89.0887L53.3625 71.7256L62.5 66.4402L63.4366 66.994L71.3118 71.5302L73.5596 72.8251L102.528 89.5447Z" fill="#263238" stroke="#263238" stroke-width="0.78783" stroke-miterlimit="10"/>
<path d="M104.653 66.3671V66.2124C104.658 66.2639 104.658 66.3156 104.653 66.3671Z" fill="#B0BEC5"/>
<path d="M33.3771 47.6442C28.6916 52.3617 25.4873 58.3459 24.1581 64.8606H21.4461C21.7067 57.582 23.8809 50.5005 27.7496 44.3296L33.3771 47.6442Z" fill="#B0BEC5"/>
<path opacity="0.6" d="M33.3771 47.6442C28.6916 52.3617 25.4873 58.3459 24.1581 64.8606H21.4461C21.7067 57.582 23.8809 50.5005 27.7496 44.3296L33.3771 47.6442Z" fill="white"/>
<path d="M48.2724 38.7921C42.6297 40.4156 37.5 43.4643 33.377 47.6447L27.7495 44.2975C31.5701 38.2027 36.9001 33.1981 43.2231 29.7686L48.2724 38.7921Z" fill="#B0BEC5"/>
<path opacity="0.5" d="M48.2724 38.7921C42.6297 40.4156 37.5 43.4643 33.377 47.6447L27.7495 44.2975C31.5701 38.2027 36.9001 33.1981 43.2231 29.7686L48.2724 38.7921Z" fill="white"/>
<path d="M63.6564 24.7518L63.5017 37.9613C61.5973 37.6333 59.6682 37.4698 57.7357 37.4727C54.5354 37.4719 51.3505 37.9159 48.2724 38.792L43.2068 29.7685C49.2942 26.4659 56.112 24.7412 63.0375 24.7518H63.6564Z" fill="#B0BEC5"/>
<path opacity="0.4" d="M63.6564 24.7518L63.5017 37.9613C61.5973 37.6333 59.6682 37.4698 57.7357 37.4727C54.5354 37.4719 51.3505 37.9159 48.2724 38.792L43.2068 29.7685C49.2942 26.4659 56.112 24.7412 63.0375 24.7518H63.6564Z" fill="white"/>
<path d="M83.9268 30.3629L76.4181 43.0106C72.5074 40.4538 68.1096 38.7346 63.5017 37.9613L63.6564 24.7517C70.7828 24.852 77.7634 26.7844 83.9268 30.3629Z" fill="#B0BEC5"/>
<path opacity="0.3" d="M83.9268 30.3629L76.4181 43.0106C72.5074 40.4538 68.1096 38.7346 63.5017 37.9613L63.6564 24.7517C70.7828 24.852 77.7634 26.7844 83.9268 30.3629Z" fill="white"/>
<path d="M98.9199 45.2666L86.1175 52.4659C83.5509 48.707 80.2654 45.4935 76.4506 43.0107L83.9594 30.363C90.1377 33.971 95.2884 39.1021 98.9199 45.2666Z" fill="#B0BEC5"/>
<path opacity="0.2" d="M98.9199 45.2666L86.1175 52.4659C83.5509 48.707 80.2654 45.4935 76.4506 43.0107L83.9594 30.363C90.1377 33.971 95.2884 39.1021 98.9199 45.2666Z" fill="white"/>
<path d="M104.645 65.83L91.4682 65.6671C90.6363 60.9383 88.8128 56.4392 86.1176 52.4657L98.9525 45.2664C102.615 51.5053 104.578 58.5956 104.645 65.83Z" fill="#B0BEC5"/>
<path opacity="0.1" d="M104.645 65.83L91.4682 65.6671C90.6363 60.9383 88.8128 56.4392 86.1176 52.4657L98.9525 45.2664C102.615 51.5053 104.578 58.5956 104.645 65.83Z" fill="white"/>
<path d="M104.661 66.2126C104.666 66.2641 104.666 66.3158 104.661 66.3673C104.549 70.9453 103.761 75.4815 102.324 79.8294L91.4599 77.3862L91.9648 73.3142C91.9648 72.7848 92.0137 72.2555 92.0137 71.6854V71.3596C92.0005 69.4285 91.8206 67.502 91.4762 65.6018L104.653 65.7647C104.657 65.8379 104.657 65.9113 104.653 65.9846C104.664 66.0601 104.667 66.1365 104.661 66.2126Z" fill="#B0BEC5"/>
<path d="M24.3047 78.9831L23.531 79.1542C23.1889 78.1443 22.8958 77.11 22.6351 76.0676C21.8526 72.893 21.4453 69.6376 21.4217 66.3681V66.2133C21.4176 66.1591 21.4176 66.1047 21.4217 66.0505C21.4217 65.6351 21.4217 65.2361 21.4217 64.8289H24.1336C23.6952 66.99 23.4634 69.1879 23.4414 71.3929C23.4305 71.5012 23.4305 71.6104 23.4414 71.7187C23.4566 73.0366 23.5463 74.3526 23.7101 75.6604C23.8489 76.7778 24.0473 77.887 24.3047 78.9831Z" fill="#B0BEC5"/>
<path opacity="0.7" d="M24.3047 78.9831L23.531 79.1542C23.1889 78.1443 22.8958 77.11 22.6351 76.0676C21.8526 72.893 21.4453 69.6376 21.4217 66.3681V66.2133C21.4176 66.1591 21.4176 66.1047 21.4217 66.0505C21.4217 65.6351 21.4217 65.2361 21.4217 64.8289H24.1336C23.6952 66.99 23.4634 69.1879 23.4414 71.3929C23.4305 71.5012 23.4305 71.6104 23.4414 71.7187C23.4566 73.0366 23.5463 74.3526 23.7101 75.6604C23.8489 76.7778 24.0473 77.887 24.3047 78.9831Z" fill="white"/>
<path d="M62.5 18.9529V13.2603" stroke="#263238" stroke-width="0.78783" stroke-miterlimit="10"/>
<path d="M39.0127 25.8186L35.8854 20.4028" stroke="#263238" stroke-width="0.78783" stroke-miterlimit="10"/>
<path d="M108.595 93.1129L102.511 89.6028" stroke="#263238" stroke-width="0.78783" stroke-miterlimit="10"/>
<path d="M22.4885 43.4015L16.3968 39.8833" stroke="#263238" stroke-width="0.78783" stroke-miterlimit="10"/>
<path d="M115.729 66.4985H109.466" stroke="#263238" stroke-width="0.78783" stroke-miterlimit="10"/>
<path d="M17.0565 66.4985H9.27087" stroke="#263238" stroke-width="0.78783" stroke-miterlimit="10"/>
<path d="M108.595 39.8833L103.676 42.7256" stroke="#263238" stroke-width="0.78783" stroke-miterlimit="10"/>
<path d="M23.6124 88.9426L16.3968 93.1124" stroke="#263238" stroke-width="0.78783" stroke-miterlimit="10"/>
<path d="M89.1145 20.4028L86.3782 25.1345" stroke="#263238" stroke-width="0.78783" stroke-miterlimit="10"/>
<path d="M105.5 76.7843L104.629 79.5696L102.308 79.0565L80.661 74.2271L71.3362 72.1585C71.9109 71.339 72.361 70.4388 72.6718 69.4873C73.0447 68.3584 73.221 67.1739 73.193 65.9854L94.0661 72.9403L105.5 76.7843Z" fill="#BFBFBF" stroke="#263238" stroke-width="0.78783" stroke-miterlimit="10"/>
<path d="M73.193 66.009C73.2407 68.2111 72.5908 70.3718 71.3362 72.1822L62.9642 70.3254L64.9432 63.2563L73.193 66.009Z" fill="#263238"/>
<path d="M73.3559 65.2684C73.4036 67.4705 72.7537 69.6312 71.4991 71.4416C70.5979 72.7479 69.408 73.8291 68.0216 74.6014C66.2182 75.616 64.1543 76.0727 62.0912 75.9137C60.0281 75.7547 58.0586 74.9872 56.4318 73.7083C54.8051 72.4295 53.5944 70.6967 52.9529 68.7295C52.3114 66.7622 52.268 64.6488 52.8282 62.6569C53.3884 60.6649 54.5269 58.8839 56.0998 57.5393C57.6726 56.1947 59.609 55.347 61.6638 55.1035C63.7186 54.8599 65.7995 55.2314 67.6431 56.1711C69.4867 57.1107 71.01 58.5762 72.0203 60.382C72.8653 61.8743 73.3244 63.5538 73.3559 65.2684Z" fill="#BFBFBF" stroke="#263238" stroke-width="0.78783" stroke-miterlimit="10"/>
</svg>
