<svg width="28" height="28" viewBox="0 0 28 28" fill="none" xmlns="http://www.w3.org/2000/svg">
<g clip-path="url(#clip0_2041_413)">
<g clip-path="url(#clip1_2041_413)">
<path fill-rule="evenodd" clip-rule="evenodd" d="M12 0C10.343 0 9 1.343 9 3V8H6C4.343 8 3 9.343 3 11V23C3 24.657 4.343 26 6 26V27C6 27.552 6.448 28 7 28C7.552 28 8 27.552 8 27V26H20V27C20 27.552 20.448 28 21 28C21.552 28 22 27.552 22 27V26C23.657 26 25 24.657 25 23V11C25 9.343 23.657 8 22 8H19V3C19 1.343 17.657 0 16 0H12ZM17 8V3C17 2.448 16.552 2 16 2H12C11.448 2 11 2.448 11 3V8H17ZM21 24H22C22.552 24 23 23.552 23 23V11C23 10.448 22.552 10 22 10H6C5.448 10 5 10.448 5 11V23C5 23.552 5.448 24 6 24H21Z" fill="#219754"/>
</g>
</g>
<path d="M13.333 21H7.71973V20.1855L10.0107 17.8594C10.4365 17.4297 10.7939 17.0469 11.083 16.7109C11.376 16.375 11.5986 16.0449 11.751 15.7207C11.9033 15.3926 11.9795 15.0332 11.9795 14.6426C11.9795 14.1582 11.835 13.7891 11.5459 13.5352C11.2607 13.2773 10.8838 13.1484 10.415 13.1484C10.0049 13.1484 9.6416 13.2188 9.3252 13.3594C9.00879 13.5 8.68457 13.6992 8.35254 13.957L7.83105 13.3008C8.05762 13.1094 8.30371 12.9395 8.56934 12.791C8.83887 12.6426 9.12598 12.5254 9.43066 12.4395C9.73926 12.3535 10.0674 12.3105 10.415 12.3105C10.9424 12.3105 11.3975 12.4023 11.7803 12.5859C12.1631 12.7695 12.458 13.0312 12.665 13.3711C12.876 13.7109 12.9814 14.1152 12.9814 14.584C12.9814 15.0371 12.8916 15.459 12.7119 15.8496C12.5322 16.2363 12.2803 16.6211 11.9561 17.0039C11.6318 17.3828 11.2529 17.7852 10.8193 18.2109L8.95605 20.0684V20.1094H13.333V21ZM19.8838 14.4316C19.8838 14.8145 19.8096 15.1465 19.6611 15.4277C19.5127 15.709 19.3057 15.9395 19.04 16.1191C18.7744 16.2949 18.4619 16.418 18.1025 16.4883V16.5352C18.7822 16.6211 19.292 16.8398 19.6318 17.1914C19.9756 17.543 20.1475 18.0039 20.1475 18.5742C20.1475 19.0703 20.0303 19.5098 19.7959 19.8926C19.5654 20.2754 19.21 20.5762 18.7295 20.7949C18.2529 21.0098 17.6416 21.1172 16.8955 21.1172C16.4424 21.1172 16.0225 21.0801 15.6357 21.0059C15.2529 20.9355 14.8857 20.8164 14.5342 20.6484V19.7344C14.8896 19.9102 15.2764 20.0488 15.6943 20.1504C16.1123 20.248 16.5166 20.2969 16.9072 20.2969C17.6885 20.2969 18.2529 20.1426 18.6006 19.834C18.9482 19.5215 19.1221 19.0957 19.1221 18.5566C19.1221 18.1855 19.0244 17.8867 18.8291 17.6602C18.6377 17.4297 18.3604 17.2617 17.9971 17.1562C17.6377 17.0469 17.2041 16.9922 16.6963 16.9922H15.8408V16.1602H16.7021C17.167 16.1602 17.5615 16.0918 17.8857 15.9551C18.21 15.8184 18.4561 15.627 18.624 15.3809C18.7959 15.1309 18.8818 14.8359 18.8818 14.4961C18.8818 14.0625 18.7373 13.7285 18.4482 13.4941C18.1592 13.2559 17.7666 13.1367 17.2705 13.1367C16.9658 13.1367 16.6885 13.168 16.4385 13.2305C16.1885 13.293 15.9541 13.3789 15.7354 13.4883C15.5166 13.5977 15.2979 13.7246 15.0791 13.8691L14.5869 13.2012C14.8994 12.959 15.2803 12.75 15.7295 12.5742C16.1787 12.3984 16.6885 12.3105 17.2588 12.3105C18.1338 12.3105 18.79 12.5098 19.2275 12.9082C19.665 13.3066 19.8838 13.8145 19.8838 14.4316Z" fill="#219754"/>
<defs>
<clipPath id="clip0_2041_413">
<rect width="27.99" height="27.99" fill="white"/>
</clipPath>
<clipPath id="clip1_2041_413">
<rect width="28" height="28" fill="white"/>
</clipPath>
</defs>
</svg>
