<svg width="60" height="13" viewBox="0 0 60 13" fill="none" xmlns="http://www.w3.org/2000/svg">
<g clip-path="url(#clip0_2041_310)">
<g clip-path="url(#clip1_2041_310)">
<mask id="mask0_2041_310" style="mask-type:luminance" maskUnits="userSpaceOnUse" x="0" y="0" width="60" height="13">
<path d="M59.9172 0H0.0678711V12.2308H59.9172V0Z" fill="white"/>
</mask>
<g mask="url(#mask0_2041_310)">
<path fill-rule="evenodd" clip-rule="evenodd" d="M6.53298 0.0820312C9.86107 0.0820312 12.5601 2.78139 12.5601 6.11005C12.5601 9.4388 9.86107 12.1382 6.53298 12.1382C3.20485 12.1382 0.505859 9.4388 0.505859 6.11005C0.505859 2.78139 3.20485 0.0820312 6.53298 0.0820312Z" fill="#F8DA55"/>
<path fill-rule="evenodd" clip-rule="evenodd" d="M6.53296 0.0820312C9.86111 0.0820312 12.5601 2.78144 12.5601 6.1101C12.5601 9.43876 9.86111 12.1381 6.53296 12.1381C3.2048 12.1381 0.505859 9.43876 0.505859 6.1101C0.505859 2.78144 3.2048 0.0820312 6.53296 0.0820312ZM6.53296 0.575147C9.58891 0.575147 12.0671 3.05377 12.0671 6.1101C12.0671 9.16652 9.58891 11.6451 6.53296 11.6451C3.4772 11.6451 0.9989 9.16652 0.9989 6.1101C0.9989 3.05377 3.4772 0.575147 6.53296 0.575147Z" fill="#E03538"/>
<path fill-rule="evenodd" clip-rule="evenodd" d="M5.61587 5.83233C5.61204 5.83513 5.61106 5.83687 5.60215 5.83687C5.59322 5.83687 5.5791 5.82318 5.5791 5.81382C5.5791 5.80445 5.58137 5.80242 5.58507 5.79834L6.78613 3.68179C6.92346 3.43964 7.14194 3.34253 7.41658 3.34198L9.52209 3.32973L9.67029 3.32985L9.67187 3.32983L9.67887 3.32985C9.94405 3.33002 10.1494 3.25986 10.3489 3.07704L10.349 3.07716C10.3518 3.07479 10.3552 3.07324 10.359 3.07324C10.3674 3.07324 10.374 3.07995 10.374 3.08832C10.374 3.09099 10.3734 3.09348 10.3722 3.09558L10.3707 3.09758L10.3705 3.09773L9.14652 4.68622C9.0573 4.80203 8.80915 4.91937 8.58926 4.91937H6.91369C6.7223 4.91937 6.54091 4.97623 6.39995 5.10668L5.61601 5.83245L5.61587 5.83233Z" fill="#0C9050"/>
<path fill-rule="evenodd" clip-rule="evenodd" d="M10.3134 7.59782C10.1138 7.78064 9.90853 7.85075 9.64335 7.85061C8.50756 7.8496 7.3196 7.8485 6.18763 7.84764H6.18433C6.06797 7.84764 5.97371 7.75333 5.97371 7.63695C5.97371 7.52298 6.06415 7.4301 6.17719 7.4264L6.17896 7.4263H6.18433H6.19061C6.74683 7.42444 7.63036 7.4263 8.25222 7.4263C8.4362 7.41658 8.59334 7.36775 8.70764 7.20696L10.3144 5.12181L10.3144 5.12178L10.3218 5.11213L10.3219 5.11208L10.3237 5.10979C10.3248 5.10776 10.3253 5.1053 10.3253 5.10272C10.3253 5.09436 10.3187 5.08765 10.3104 5.08765C10.3066 5.08765 10.3031 5.0892 10.3003 5.09156L10.3002 5.09144C10.1007 5.27426 9.89539 5.34442 9.63018 5.34425H9.62612H9.62524L9.58747 5.34421L9.57679 5.34425C8.80532 5.34425 7.74132 5.34425 6.96987 5.34425C6.73001 5.34425 6.49665 5.42366 6.33972 5.63497C6.2876 5.70124 6.23409 5.76495 6.19506 5.83394L5.28525 7.44035L5.28496 7.44071C5.1321 7.70971 4.84301 7.89117 4.51149 7.89117C4.02047 7.89117 3.62239 7.49307 3.62239 7.00195C3.62239 6.51083 4.02047 6.11269 4.51149 6.11269C4.55998 6.11269 4.60754 6.11666 4.65389 6.12413C4.66695 6.12036 4.67648 6.10846 4.67648 6.09418C4.67648 6.08768 4.67452 6.08156 4.67111 6.0765L4.16368 5.41735C4.04182 5.25907 3.85497 5.18303 3.66183 5.25718L3.66152 5.2567L3.65607 5.25947C3.62394 5.27237 3.59265 5.28953 3.56222 5.31122C2.97719 5.65363 2.57227 6.26493 2.57227 6.9919C2.57227 8.0823 3.42015 8.94215 4.51034 8.94215L4.5311 8.94201C4.54866 8.9438 4.56579 8.94583 4.58356 8.94753H9.2688H9.27076H9.27107C9.29998 8.94753 9.3258 8.93348 9.34169 8.91186L9.3424 8.91155L10.335 7.61851L10.3355 7.61817C10.3374 7.61581 10.3385 7.61261 10.3385 7.6091C10.3385 7.60074 10.3319 7.59402 10.3235 7.59402C10.3197 7.59402 10.3163 7.59557 10.3135 7.59792L10.3134 7.59782Z" fill="#0C9050"/>
<path d="M19.408 1.19601H18.1188L17.585 3.74713C17.4048 4.53048 17.2662 5.18905 16.379 5.18905C15.9146 5.18905 15.6374 4.96722 15.6374 4.5998C15.6374 4.33638 15.7136 4.0799 15.7621 3.84417L16.3374 1.19601H15.0482L14.4868 3.78179C14.4175 4.10763 14.3481 4.40571 14.3481 4.82165C14.3481 5.60502 15.0621 6.24971 16.3513 6.24971C18.1395 6.24971 18.5416 5.35543 18.8188 4.0244L19.408 1.19601ZM18.9644 6.14573H23.2271L23.4489 5.03655H20.7318L23.9202 2.30519L24.142 1.19601H20.0942L19.8654 2.30519H22.2775L19.1792 5.03655L18.9644 6.14573ZM23.8301 6.14573H26.2492C27.6978 6.13877 28.5018 5.48715 28.5018 4.48196C28.5018 4.03828 28.2384 3.61541 27.8017 3.51143V3.49757C28.3702 3.37278 28.7166 2.92913 28.7166 2.27747C28.7166 1.73675 28.5088 1.19601 27.171 1.19601H24.8629L23.8301 6.14573ZM25.9303 2.20814H26.7759C27.0533 2.20814 27.4274 2.23587 27.4274 2.59634C27.4274 2.97762 27.171 3.144 26.6512 3.144H25.7363L25.9303 2.20814ZM25.5559 4.01055H26.4639C26.7967 4.01055 27.2126 4.04521 27.2126 4.50274C27.2126 5.03655 26.7828 5.13361 26.3323 5.13361H25.3204L25.5559 4.01055ZM28.8346 6.14573H32.7991L33.0349 5.03655H30.3525L30.5464 4.09375H33.0002L33.2081 3.09549H30.7545L30.9138 2.30519H33.5755L33.8112 1.19601H29.8604L28.8346 6.14573ZM33.5824 6.14573H34.8716L35.1905 4.64139L35.8628 4.06604L36.8816 6.14573H38.3512L36.8816 3.23413L39.2453 1.19601H37.5402L35.5231 3.1371H35.5092L35.9182 1.19601H34.6289L33.5824 6.14573ZM38.7186 6.14573H40.0076L41.0405 1.19601H39.7513L38.7186 6.14573ZM40.9572 4.48196C40.9433 5.65353 41.7682 6.24971 42.9466 6.24971C44.3952 6.24971 45.1784 5.50796 45.1784 4.62753C45.1784 3.65703 44.3813 3.30346 43.7022 3.11627C43.0089 2.92913 42.8011 2.89444 42.8011 2.59634C42.8011 2.28441 43.1336 2.15269 43.4525 2.15269C43.6811 2.15269 43.8546 2.19428 43.9723 2.28441C44.0832 2.3676 44.1458 2.49928 44.1458 2.68647H45.4348C45.4696 1.48025 44.5755 1.09204 43.5218 1.09204C42.5307 1.09204 41.5118 1.57038 41.5118 2.69342C41.5118 3.42132 42.0109 3.74713 42.6277 3.96896C43.1405 4.14922 43.8892 4.20469 43.8892 4.69686C43.8892 4.96722 43.6744 5.18905 43.1544 5.18905C42.5445 5.18905 42.2464 5.01576 42.2464 4.48196H40.9572ZM50.3629 1.19601H46.1626L45.941 2.30519H47.3965L46.5855 6.14573H47.8747L48.6857 2.30519H50.1412L50.3629 1.19601ZM48.7966 6.14573H50.1482L50.6472 5.25837H52.387L52.5047 6.14573H53.8009L52.9899 1.19601H51.6868L48.7966 6.14573ZM52.075 2.52011H52.0888L52.2761 4.30172H51.1462L52.075 2.52011ZM54.099 6.14573H55.3467L55.9774 2.90832H55.9912L57.1347 6.14573H58.4586L59.4916 1.19601H58.2439L57.6271 4.43342H57.6132L56.4556 1.19601H55.1317L54.099 6.14573Z" fill="#001549"/>
<path d="M38.2393 11.0634H39.0859L39.3986 10.5075H40.4886L40.5624 11.0634H41.3743L40.8662 7.9626H40.05L38.2393 11.0634ZM40.2932 8.7921H40.3018L40.4191 9.9082H39.7112L40.2932 8.7921ZM41.5958 11.0634H42.4035L43.0503 7.9626H42.2427L41.5958 11.0634ZM44.2531 8.58797H44.8479C45.0608 8.58797 45.2822 8.64445 45.2822 8.90937C45.2822 9.24375 45.0304 9.33496 44.7395 9.33496H44.0969L44.2531 8.58797ZM42.9331 11.0634H43.7407L43.9753 9.93424H44.5137C44.8002 9.93424 44.9174 10.0776 44.9174 10.3512C44.9174 10.5596 44.8957 10.7247 44.8957 10.8854C44.8957 10.9461 44.9088 11.0026 44.9217 11.0634H45.7337C45.6862 10.9766 45.6862 10.8419 45.6862 10.7334C45.6862 10.5553 45.6991 10.3816 45.6991 10.1557C45.6991 9.8561 45.6121 9.69541 45.3821 9.63896V9.63027C45.8684 9.56077 46.0899 9.23073 46.0899 8.76604C46.0899 8.10593 45.6599 7.9626 45.0954 7.9626H43.5756L42.9331 11.0634ZM46.5719 11.0634H47.3839L48.2262 8.96581H48.2348V11.0634H49.0468L50.5188 7.9626H49.6896L48.8124 10.2209H48.8038V7.9626H48.0657L47.1536 10.2209H47.145L47.1668 7.9626H46.3548L46.5719 11.0634ZM49.6853 11.0634H50.5319L50.8446 10.5075H51.9344L52.0082 11.0634H52.8202L52.3123 7.9626H51.4958L49.6853 11.0634ZM51.739 8.7921H51.7478L51.8649 9.9082H51.1573L51.739 8.7921ZM53.5194 11.0634H54.3182L54.5657 9.89081L56.0854 7.9626H55.1172L54.2532 9.25242L53.8841 7.9626H53.0504L53.7668 9.89081L53.5194 11.0634ZM55.6514 10.0211C55.6425 10.7551 56.1592 11.1286 56.8974 11.1286C57.8049 11.1286 58.2958 10.6639 58.2958 10.1123C58.2958 9.50433 57.7963 9.28283 57.3709 9.16557C56.9366 9.04832 56.8064 9.02661 56.8064 8.83988C56.8064 8.64445 57.0147 8.56194 57.2144 8.56194C57.3577 8.56194 57.4664 8.58797 57.5402 8.64445C57.6097 8.69655 57.6487 8.77908 57.6487 8.89632H58.4563C58.4781 8.14067 57.9179 7.89746 57.2579 7.89746C56.637 7.89746 55.9987 8.19714 55.9987 8.90065C55.9987 9.35665 56.3114 9.56077 56.6977 9.69976C57.019 9.81268 57.4881 9.84738 57.4881 10.1557C57.4881 10.3251 57.3534 10.4641 57.0278 10.4641C56.6456 10.4641 56.459 10.3555 56.459 10.0211H55.6514Z" fill="#001549"/>
</g>
</g>
</g>
<defs>
<clipPath id="clip0_2041_310">
<rect width="60" height="12.2308" fill="white"/>
</clipPath>
<clipPath id="clip1_2041_310">
<rect width="60" height="12.2308" fill="white"/>
</clipPath>
</defs>
</svg>
