<svg width="80" height="80" viewBox="0 0 80 80" fill="none" xmlns="http://www.w3.org/2000/svg">
<g clip-path="url(#clip0_2041_726)">
<g clip-path="url(#clip1_2041_726)">
<path d="M56.0265 2.26507C49.4093 2.37832 44.3075 7.78932 38.643 11.2121C30.0896 16.3804 19.1041 17.4303 11.8792 24.3351C6.93379 29.0684 4.49254 36.1944 5.18285 43.0022C5.87316 49.81 9.61232 56.1917 15.0197 60.3875C18.4677 63.0607 22.5142 64.8637 26.6435 66.2749C30.8285 67.7023 35.1861 68.7611 39.6083 68.8168C45.7366 68.8941 51.757 67.0407 57.3011 64.4251C61.1571 62.6077 64.8747 60.3857 67.9074 57.389C70.7729 54.5595 72.9696 51.0827 74.4743 47.3472C78.1937 38.1143 77.6022 27.5314 74.3772 18.1134C71.7094 10.324 65.1875 2.10687 56.0265 2.26507Z" fill="#407BFF"/>
<path opacity="0.7" d="M56.0265 2.26507C49.4093 2.37832 44.3075 7.78932 38.643 11.2121C30.0896 16.3804 19.1041 17.4303 11.8792 24.3351C6.93379 29.0684 4.49254 36.1944 5.18285 43.0022C5.87316 49.81 9.61232 56.1917 15.0197 60.3875C18.4677 63.0607 22.5142 64.8637 26.6435 66.2749C30.8285 67.7023 35.1861 68.7611 39.6083 68.8168C45.7366 68.8941 51.757 67.0407 57.3011 64.4251C61.1571 62.6077 64.8747 60.3857 67.9074 57.389C70.7729 54.5595 72.9696 51.0827 74.4743 47.3472C78.1937 38.1143 77.6022 27.5314 74.3772 18.1134C71.7094 10.324 65.1875 2.10687 56.0265 2.26507Z" fill="white"/>
<path opacity="0.1" d="M60.1285 40.3686C60.0817 39.015 59.9936 37.5714 59.848 36.0776C59.6521 33.0934 59.2782 30.307 58.6004 28.5543C54.8685 27.7903 35.4805 29.214 35.4662 29.214L35.3457 28.6747L35.2972 28.4608L35.2109 28.0851L35.1875 27.9988C35.0617 27.4919 34.9197 26.9903 34.7543 26.4924C34.7543 26.4924 20.0565 25.1801 15.1812 26.4528C15.1812 26.496 15.1812 26.5373 15.1812 26.5804L15.1956 27.7831C15.21 30.1111 15.156 32.2953 15.2765 34.6934V34.7113C15.2531 34.7092 15.2297 34.7092 15.2064 34.7113C15.0172 34.7363 14.8386 34.8132 14.6904 34.9335C14.5422 35.0537 14.4302 35.2127 14.3668 35.3927C14.3185 35.5322 14.3007 35.6806 14.3147 35.8277L14.3794 36.5845C14.3794 36.5971 14.3794 36.6079 14.3794 36.6205C14.5592 38.5296 14.739 40.4208 14.739 40.4208C14.739 40.4208 14.8324 40.4297 14.9852 40.4369L15.7924 40.4945C14.0738 40.6527 12.197 42.9213 12.2797 44.8718C12.3624 46.8223 10.4821 50.4949 10.9513 52.6018C11.3108 54.2485 13.1606 56.8964 14.0612 58.908L13.9911 59.3071L9.96973 67.3823C10.2394 66.9868 12.6662 77.5392 23.9377 75.3047L31.9571 62.2391C32.8516 61.5646 33.6701 60.7949 34.3983 59.9435C34.7057 59.6381 34.9613 59.2848 35.1552 58.8973C35.4415 58.4398 35.6601 57.9433 35.8041 57.4232C35.8401 57.2865 35.8778 57.1517 35.9174 57.0133C36.5717 55.3469 37.4454 53.0728 38.0854 51.498C46.5345 51.2464 55.406 50.7304 59.8606 49.6824H59.8696C60.3011 46.7522 60.31 43.4642 60.1285 40.3686ZM16.738 47.7517C16.6682 47.2649 16.6262 46.7745 16.6121 46.283C16.711 46.8007 16.8189 47.3166 16.9321 47.8344C16.8674 47.8056 16.8027 47.7768 16.738 47.7517Z" fill="black"/>
<path d="M9.05127 66.8664C9.05127 66.8664 12.661 77.5392 23.9378 75.3047C23.9378 75.3047 26.4402 63.5569 28.5363 61.8221C29.8881 60.7076 32.8741 58.7086 33.5122 57.2614C34.1504 55.8143 36.7139 48.9418 37.2101 48.1149C37.7062 47.2879 31.8314 37.7728 31.8314 37.7728L19.4562 44.1582L12.5711 56.3824C12.5711 56.3824 11.2498 64.2921 9.05127 66.8664Z" fill="white"/>
<path d="M12.4507 57.3351C12.4507 57.3351 11.568 63.9344 8.65039 67.3823" stroke="#263238" stroke-width="0.179768" stroke-linecap="round" stroke-linejoin="round"/>
<path d="M23.938 75.3047C23.938 75.3047 26.426 63.938 28.5364 61.8222C28.5364 61.8222 33.3039 59.0502 34.1632 55.7874C34.7582 53.5277 35.8404 50.9229 36.3581 49.74" stroke="#263238" stroke-width="0.179768" stroke-linecap="round" stroke-linejoin="round"/>
<path d="M24.9407 50.1048C24.7609 49.9898 27.826 52.4418 27.9446 55.7927" stroke="#263238" stroke-width="0.179768" stroke-linecap="round" stroke-linejoin="round"/>
<path d="M58.2283 48.0501C48.2908 50.3871 16.285 50.0797 16.285 50.0797C16.0153 49.5116 15.6899 48.0806 15.3753 46.4232C14.7461 43.0957 14.1583 38.855 14.1583 38.855L13.0995 38.7813C13.0995 38.7813 12.9197 36.8901 12.7399 34.981C12.5602 33.0718 13.6388 33.0736 13.6388 33.0736L13.5615 26.4654L13.5417 24.8151C18.417 23.5424 33.1148 24.8547 33.1148 24.8547L33.5732 26.4474L33.8285 27.5763L56.961 26.9238C59.0822 32.4085 58.2283 48.0501 58.2283 48.0501Z" fill="#407BFF"/>
<path d="M54.3852 32.0193L39.2128 32.7779C38.5883 32.8092 38.1073 33.3407 38.1386 33.9652L38.2927 37.0482C38.3239 37.6727 38.8555 38.1536 39.48 38.1224L54.6524 37.3638C55.2769 37.3326 55.7578 36.801 55.7266 36.1765L55.5724 33.0935C55.5412 32.469 55.0096 31.9881 54.3852 32.0193Z" fill="#263238"/>
<path d="M55.6432 39.3782L55.6917 39.8905L38.2219 40.5664L38.2075 40.1062L55.6432 39.3782Z" fill="#263238"/>
<path d="M55.7297 41.1597L55.7459 41.6199L38.2779 42.2652L38.2617 41.8068L55.7297 41.1597Z" fill="#263238"/>
<path opacity="0.3" d="M56.9575 26.9239C56.9575 26.9239 59.5354 39.1481 58.2285 48.0502C58.2285 48.0502 41.9272 49.9629 36.3454 49.6537L36.1171 46.6786L36.5845 46.6067C36.5845 46.6067 34.3338 29.6258 33.8232 27.5765C33.8232 27.5765 53.2363 26.1581 56.9575 26.9239Z" fill="black"/>
<path opacity="0.8" d="M35.5796 46.6354L35.772 48.8843C35.772 48.8843 19.3412 49.6033 17.8959 49.0802C16.4505 48.5571 17.9732 47.723 21.795 47.4228C25.6169 47.1225 35.5796 46.6354 35.5796 46.6354Z" fill="white"/>
<path d="M25.7696 37.0969C26.5986 37.0969 27.2707 36.4884 27.2707 35.7378C27.2707 34.9872 26.5986 34.3788 25.7696 34.3788C24.9406 34.3788 24.2686 34.9872 24.2686 35.7378C24.2686 36.4884 24.9406 37.0969 25.7696 37.0969Z" fill="#263238"/>
<path d="M14.1582 38.8532C14.4968 42.656 15.2085 46.4162 16.2831 50.0797C23.2526 50.0204 30.2204 49.9431 37.1882 49.7202C44.156 49.4973 51.3162 49.0263 58.221 48.0501C58.221 48.0501 59.4578 37.1274 56.9501 26.9238C54.1781 26.3468 33.8931 27.5728 33.8931 27.5728" stroke="#263238" stroke-width="0.179768" stroke-linecap="round" stroke-linejoin="round"/>
<path d="M35.5794 46.6354L35.7718 48.8842L20.132 49.2438C19.4866 49.2995 18.4817 49.384 17.8885 49.0802C17.6189 48.9418 17.4247 48.6038 17.5523 48.327C17.6674 48.0789 17.9694 47.9908 18.2391 47.9369C20.1518 47.5432 22.1041 47.3778 24.0509 47.234C28.2191 46.9248 32.3939 46.7157 36.5753 46.6066C36.4873 46.6066 35.468 38.1953 35.3547 37.4187C34.9125 34.3806 34.4918 31.3299 33.9453 28.3081C33.7481 27.1381 33.4663 25.9839 33.1022 24.8547C26.6594 24.3945 19.9307 23.9685 13.5273 24.8152C13.5867 27.6681 13.4806 30.2082 13.6262 33.0737" stroke="#263238" stroke-width="0.179768" stroke-linecap="round" stroke-linejoin="round"/>
<path d="M16.0444 49.2329C16.0059 49.1166 15.9829 48.9957 15.9761 48.8734" stroke="#263238" stroke-width="0.179768" stroke-linecap="round" stroke-linejoin="round"/>
<path d="M16.0801 48.1922C16.3192 47.5936 17.0364 46.9177 18.9869 46.7019C22.5445 46.3065 30.2997 45.5946 34.8496 45.422" stroke="#263238" stroke-width="0.179768" stroke-linecap="round" stroke-linejoin="round" stroke-dasharray="0.7 0.7"/>
<path d="M35.2021 45.4094L35.5617 45.3968L35.5131 45.0372" stroke="#263238" stroke-width="0.179768" stroke-linecap="round" stroke-linejoin="round"/>
<path d="M35.4126 44.3487C34.5947 38.4649 33.6886 32.6243 32.6514 26.7728" stroke="#263238" stroke-width="0.179768" stroke-linecap="round" stroke-linejoin="round" stroke-dasharray="0.7 0.7"/>
<path d="M32.5937 26.4295L32.529 26.07L32.1694 26.0448" stroke="#263238" stroke-width="0.179768" stroke-linecap="round" stroke-linejoin="round"/>
<path d="M31.4432 25.998C28.4536 25.7985 19.9524 25.3005 14.2808 25.6888" stroke="#263238" stroke-width="0.179768" stroke-linecap="round" stroke-linejoin="round" stroke-dasharray="0.73 0.73"/>
<path d="M13.9142 25.7158L13.5547 25.7446" stroke="#263238" stroke-width="0.179768" stroke-linecap="round" stroke-linejoin="round"/>
<path d="M13.0998 38.7813L12.6701 34.1972C12.6571 34.0595 12.6719 33.9206 12.7138 33.7888C12.7557 33.657 12.8237 33.535 12.9139 33.4301C13.004 33.3253 13.1143 33.2396 13.2383 33.1784C13.3623 33.1171 13.4974 33.0815 13.6355 33.0736C16.278 32.9208 23.1128 32.5613 25.7356 32.7716C26.994 32.8723 28.362 33.2768 28.9714 34.4812C29.4784 35.4735 29.5539 36.962 28.7036 37.7782C27.4092 39.0186 24.9536 38.9233 23.2854 38.9826C20.179 39.1012 13.1015 38.8082 13.0998 38.7813Z" stroke="#263238" stroke-width="0.179768" stroke-linecap="round" stroke-linejoin="round"/>
<path d="M29.3504 35.979C29.3504 35.8514 30.0047 38.6126 27.6138 39.524C25.2229 40.4355 14.1582 40.1478 14.1582 40.1478V38.8535C14.1582 38.8535 21.9853 39.0189 23.2886 38.9829C24.5919 38.947 29.2101 39.3802 29.3504 35.979Z" fill="#263238"/>
<path d="M27.0513 51.4028C27.0513 51.4028 29.0071 52.548 29.7388 54.6998" stroke="#263238" stroke-width="0.179768" stroke-linecap="round" stroke-linejoin="round"/>
<path d="M12.7241 33.7622C12.7241 33.7622 22.3165 33.311 24.7578 33.3919C27.199 33.4728 28.3945 34.0103 28.6371 35.5401C28.8798 37.07 27.4003 38.0227 26.2211 38.2025C25.0418 38.3823 13.098 38.4344 13.098 38.4344" stroke="#263238" stroke-width="0.179768" stroke-linecap="round" stroke-linejoin="round" stroke-dasharray="0.72 0.72"/>
<path d="M19.3162 52.2945C19.3162 52.2945 17.8313 47.1369 15.0988 46.1213C15.0988 46.1213 14.5595 42.6014 15.7244 42.4073C16.8893 42.2131 20.1791 40.0451 19.3198 37.3396C18.4605 34.6341 15.8808 38.6969 14.1622 38.8533C12.4437 39.0097 10.5669 41.2801 10.6442 43.2324C10.7215 45.1847 8.84651 48.8573 9.31571 50.9624C9.7849 53.0675 12.6774 56.8228 12.9111 58.7769" fill="white"/>
<path d="M19.3162 52.2945C19.3162 52.2945 17.8313 47.1369 15.0988 46.1213C15.0988 46.1213 14.5595 42.6014 15.7244 42.4073C16.8893 42.2131 20.1791 40.0451 19.3198 37.3396C18.4605 34.6341 15.8808 38.6969 14.1622 38.8533C12.4437 39.0097 10.5669 41.2801 10.6442 43.2324C10.7215 45.1847 8.84651 48.8573 9.31571 50.9624C9.7849 53.0675 12.6774 56.8228 12.9111 58.7769" stroke="#263238" stroke-width="0.179768" stroke-linecap="round" stroke-linejoin="round"/>
<path d="M15.7188 38.0604C15.7188 38.0604 17.7771 38.4343 18.8952 37.1274C20.0134 35.8205 18.7263 35.7378 18.7263 35.7378L15.7188 38.0604Z" fill="white" stroke="#263238" stroke-width="0.179768" stroke-linecap="round" stroke-linejoin="round"/>
<path d="M12.0425 40.9727C12.4182 40.9985 12.7816 41.1177 13.0995 41.3196" stroke="#263238" stroke-width="0.179768" stroke-linecap="round" stroke-linejoin="round"/>
<path d="M11.9795 41.7206C12.3538 41.7561 12.7103 41.8969 13.0078 42.1269" stroke="#263238" stroke-width="0.179768" stroke-linecap="round" stroke-linejoin="round"/>
<path d="M17.5361 48.629C17.5361 48.629 26.3447 48.1742 28.6637 48.3072" stroke="#263238" stroke-width="0.179768" stroke-linecap="round" stroke-linejoin="round"/>
<path d="M26.519 47.6348C26.519 47.6348 28.7356 47.4551 30.1144 47.6348" stroke="#263238" stroke-width="0.179768" stroke-linecap="round" stroke-linejoin="round"/>
<path d="M32.1353 48.2821H35.7216" stroke="#263238" stroke-width="0.179768" stroke-linecap="round" stroke-linejoin="round"/>
<path d="M34.3052 28.5831C34.3052 28.5831 50.0582 27.1755 56.3878 27.979C56.3878 27.979 58.0956 31.1196 57.7235 47.2142C50.6093 48.1261 43.4516 48.6583 36.2808 48.8087" stroke="#263238" stroke-width="0.179768" stroke-linecap="round" stroke-linejoin="round" stroke-dasharray="0.72 0.72"/>
<g opacity="0.1">
<path d="M76.9495 50.8565C76.5019 48.9527 75.8457 48.2372 75.1878 47.6872C75.1878 47.6872 75.1734 46.6086 74.3303 45.9937C74.1051 45.7954 73.8647 45.6151 73.6112 45.4544C72.8202 44.8612 71.9483 44.1961 71.9483 44.1961C71.5385 43.0096 70.983 41.5733 70.3826 40.1603L70.4131 40.4821C69.7983 38.981 69.1961 37.4871 69.0271 36.991V36.9802C69.2069 37.4584 69.3867 37.9204 69.5844 38.3464L67.3337 30.3917C67.2798 30.0717 67.224 29.7571 67.1683 29.4533C67.0605 28.5545 66.7674 26.8611 66.061 26.7406C66.0346 26.7389 66.0082 26.7389 65.9819 26.7406C65.9819 26.7406 65.1495 26.3811 65.1495 27.857C64.159 28.1878 63.7761 28.9356 63.6808 29.8147C63.6293 30.0935 63.6232 30.3788 63.6629 30.6596C63.6808 30.985 63.7186 31.3175 63.7689 31.6483L60.5798 27.4561L60.2724 27.057L56.3391 21.8797L51.0522 14.9047C50.8554 14.6458 50.6096 14.4282 50.3288 14.2643C50.0479 14.1004 49.7375 13.9935 49.4153 13.9495C49.0932 13.9056 48.7655 13.9256 48.451 14.0084C48.1365 14.0912 47.8415 14.2351 47.5826 14.432L41.0193 19.4169L38.4576 21.362C36.4928 22.3849 37.0051 24.4055 37.5498 25.1227L48.9956 40.1891C48.936 40.1815 48.8759 40.1785 48.8158 40.1801C48.8158 40.1801 48.4887 39.4089 47.6797 39.5311C47.5075 39.5391 47.3407 39.5944 47.1979 39.6911C47.0674 39.7597 46.9567 39.8606 46.8762 39.9841C46.7865 40.0924 46.7059 40.2078 46.6353 40.3293C46.2236 41.034 46.6047 42.7579 47.1997 44.863C47.2375 44.9996 47.2752 45.1309 47.3112 45.2531V45.2729L47.464 45.7996C48.0464 47.8202 49.1358 51.7877 49.3372 53.7327C49.3516 53.9125 49.3605 54.1049 49.3641 54.2846C49.3767 56.5245 48.3826 60.2745 48.8105 61.8241C48.8662 62.0272 48.9237 62.2214 48.9812 62.4137C49.2994 63.4492 49.5835 64.4289 50.0832 65.4015C50.6908 66.5879 51.4153 67.7258 52.093 68.8746C53.337 70.985 54.6241 73.0703 55.9544 75.1305C56.5674 76.0761 57.2847 76.9389 57.9786 77.827C58.2968 78.2351 58.9907 78.8481 59.1111 79.3712C59.1111 79.3712 65.2646 79.8799 68.7089 77.6922L68.3854 72.7953L70.6954 59.5195C71.3551 58.5182 73.3919 56.5623 73.7982 55.9439C74.0085 55.6365 74.2134 55.3309 74.413 55.0325C75.932 53.6141 76.6924 52.5157 77.0268 51.2376C77.034 51.2412 77.0106 51.0956 76.9495 50.8565ZM55.647 53.7561L55.6165 53.6986C56.245 53.9832 56.9108 54.1768 57.5939 54.2738C56.8766 54.1911 56.0659 54.0761 55.647 53.7561ZM58.2429 54.3511L58.5736 54.3745C58.463 54.3741 58.3525 54.3663 58.2429 54.3511ZM55.5823 53.6213L55.1688 52.8015C54.5936 51.1513 53.2939 47.2611 53.2885 47.2449C53.0339 46.1239 52.6938 45.0241 52.271 43.9552C52.5768 44.063 52.9046 44.0932 53.225 44.043C53.5454 43.9928 53.8482 43.8638 54.1064 43.6676L57.2523 41.2784C57.5777 41.4744 57.9103 41.6506 58.2357 41.8052L61.1821 44.108L58.8451 53.713L55.5823 53.6213ZM67.5081 31.4991C67.7526 32.646 68.1391 34.2963 68.6514 35.8944C68.154 34.4618 67.7705 32.9921 67.5045 31.4991H67.5081Z" fill="black"/>
<path d="M54.1533 77.6525L54.1713 77.7388C54.1713 77.7388 54.1659 77.7064 54.1533 77.6525Z" fill="black"/>
</g>
<path d="M65.0738 31.8514C65.2536 31.7328 67.889 30.2982 69.2085 34.6C70.528 38.9019 72.0758 46.222 72.0758 46.222L68.9406 46.8314C68.9406 46.8314 66.0356 45.2854 63.4325 41.4132C63.4325 41.4132 59.7833 40.4677 58.1941 38.2206C56.756 36.1784 61.1926 28.6803 61.1926 28.6803L65.0738 31.8514Z" fill="white"/>
<path d="M63.9468 37.2048C64.7234 38.3697 66.1939 40.82 68.1785 41.593" stroke="#263238" stroke-width="0.179768" stroke-linecap="round" stroke-linejoin="round"/>
<path d="M61.75 38.4578C62.1095 38.6034 63.0084 39.1211 63.4326 39.1409C63.4326 39.1409 65.2645 42.7668 68.2863 43.9443" stroke="#263238" stroke-width="0.179768" stroke-linecap="round" stroke-linejoin="round"/>
<path d="M60.0693 39.7936C61.1929 40.7338 62.5322 41.3755 63.4328 41.4115C63.4328 41.4115 65.2646 45.0374 68.2865 46.2149" stroke="#263238" stroke-width="0.179768" stroke-linecap="round" stroke-linejoin="round"/>
<path d="M50.6136 13.519L40.6731 21.0697C39.8097 21.7255 39.6415 22.957 40.2973 23.8203L54.1036 41.9964C54.7594 42.8597 55.9909 43.028 56.8543 42.3722L66.7948 34.8214C67.6581 34.1657 67.8264 32.9342 67.1706 32.0708L53.3642 13.8948C52.7084 13.0314 51.4769 12.8632 50.6136 13.519Z" fill="#263238"/>
<path d="M66.512 34.4275L57.3906 41.3576C57.1319 41.5548 56.8367 41.6989 56.5221 41.7818C56.2075 41.8647 55.8797 41.8847 55.5573 41.8406C55.235 41.7965 54.9245 41.6892 54.6438 41.5249C54.363 41.3606 54.1174 41.1424 53.9211 40.883L40.7352 23.5246C40.5203 23.2442 40.3694 22.9203 40.2929 22.5754C40.1866 22.1124 40.2165 21.6285 40.3788 21.182C40.5411 20.7354 40.8291 20.3454 41.208 20.0587L43.7714 18.1136L50.333 13.1269C50.5919 12.9301 50.8871 12.7863 51.2016 12.7037C51.5161 12.621 51.8438 12.6012 52.166 12.6453C52.4882 12.6893 52.7986 12.7965 53.0794 12.9605C53.3602 13.1246 53.6059 13.3424 53.8025 13.6014L59.093 20.5656L63.0263 25.7429L66.9812 30.9562C67.1785 31.2149 67.3229 31.5099 67.4061 31.8244C67.4894 32.1389 67.5098 32.4667 67.4662 32.7891C67.4226 33.1115 67.3159 33.4222 67.1522 33.7033C66.9885 33.9844 66.7709 34.2305 66.512 34.4275Z" fill="#407BFF"/>
<path opacity="0.1" d="M59.0859 20.5656L43.7661 18.1118L50.333 13.1269C50.592 12.9301 50.8871 12.7863 51.2017 12.7037C51.5162 12.621 51.8439 12.6012 52.1661 12.6453C52.4883 12.6893 52.7987 12.7965 53.0795 12.9605C53.3602 13.1246 53.6059 13.3424 53.8025 13.6014L59.0859 20.5656Z" fill="black"/>
<path opacity="0.1" d="M66.5121 34.4275L57.3907 41.3576C57.1319 41.5548 56.8368 41.6989 56.5222 41.7818C56.2076 41.8647 55.8797 41.8847 55.5574 41.8406C55.235 41.7965 54.9246 41.6892 54.6438 41.5249C54.363 41.3606 54.1174 41.1424 53.9211 40.883L40.7352 23.5246C40.5204 23.2442 40.3694 22.9203 40.293 22.5754L63.3284 26.1582L66.9813 30.967C67.3764 31.4887 67.5488 32.1456 67.4609 32.7941C67.373 33.4426 67.0318 34.0299 66.5121 34.4275Z" fill="black"/>
<path d="M51.6276 14.8892L50.0172 16.1125C49.6946 16.3575 49.6317 16.8176 49.8768 17.1402L51.8264 19.7069C52.0714 20.0295 52.5316 20.0924 52.8541 19.8473L54.4646 18.6241C54.7872 18.379 54.85 17.9189 54.605 17.5963L52.6553 15.0296C52.4103 14.7071 51.9502 14.6442 51.6276 14.8892Z" fill="white" stroke="#263238" stroke-width="0.179768" stroke-linecap="round" stroke-linejoin="round"/>
<path d="M50.8564 15.4728L53.6374 19.2515" stroke="#263238" stroke-width="0.179768" stroke-linecap="round" stroke-linejoin="round"/>
<path d="M50.8564 18.43L53.6374 16.3213" stroke="#263238" stroke-width="0.179768" stroke-linecap="round" stroke-linejoin="round"/>
<path d="M56.242 40.2267L55.7674 40.5755L49.9771 32.9534L50.448 32.5974L56.242 40.2267Z" fill="#263238"/>
<path d="M57.0455 39.6317L56.5709 39.9841L50.7734 32.3493L51.2408 31.9934L57.0455 39.6317Z" fill="#263238"/>
<path d="M57.8472 39.0403L57.3744 39.3891L51.5679 31.7471L52.0371 31.3894L57.8472 39.0403Z" fill="#263238"/>
<path d="M58.651 38.4453L58.1765 38.794L52.4473 31.2528L52.9147 30.895L58.651 38.4453Z" fill="#263238"/>
<path d="M59.5175 37.8053L59.0429 38.1558L53.3047 30.602L53.7739 30.2443L59.5175 37.8053Z" fill="#263238"/>
<path d="M59.5175 28.9176L59.0429 29.2663L53.3047 21.7125L53.7739 21.3566L59.5175 28.9176Z" fill="#263238"/>
<path d="M47.0205 15.663L46.2861 16.2208L62.4554 37.5076L63.1897 36.9498L47.0205 15.663Z" fill="#263238"/>
<path d="M66.512 34.4275L57.3906 41.3576C57.1319 41.5548 56.8367 41.6989 56.5221 41.7818C56.2075 41.8647 55.8797 41.8847 55.5573 41.8406C55.235 41.7965 54.9245 41.6892 54.6438 41.5249C54.363 41.3606 54.1174 41.1424 53.9211 40.883L40.7352 23.5246C40.5203 23.2442 40.3694 22.9203 40.2929 22.5754C40.1866 22.1124 40.2165 21.6285 40.3788 21.182C40.5411 20.7354 40.8291 20.3454 41.208 20.0587L43.7714 18.1136L50.333 13.1269C50.5919 12.9301 50.8871 12.7863 51.2016 12.7037C51.5161 12.621 51.8438 12.6012 52.166 12.6453C52.4882 12.6893 52.7986 12.7965 53.0794 12.9605C53.3602 13.1246 53.6059 13.3424 53.8025 13.6014L59.093 20.5656L63.0263 25.7429L66.9812 30.9562C67.1785 31.2149 67.3229 31.5099 67.4061 31.8244C67.4894 32.1389 67.5098 32.4667 67.4662 32.7891C67.4226 33.1115 67.3159 33.4222 67.1522 33.7033C66.9885 33.9844 66.7709 34.2305 66.512 34.4275Z" stroke="#263238" stroke-width="0.179768" stroke-linecap="round" stroke-linejoin="round"/>
<path d="M59.1184 79.3694C59.1184 79.3694 69.7355 83.1445 72.9479 74.922C72.9479 74.922 67.9234 68.8099 70.6667 63.8159C72.3925 60.67 77.1653 53.7256 77.1653 53.7256C77.1653 53.7256 79.1589 51.8326 79.7791 49.9307C79.7791 49.9307 79.4375 47.8112 77.9347 46.3767C77.9347 46.3767 77.9185 45.2981 77.0754 44.6833C76.2323 44.0685 74.6863 42.8856 74.6863 42.8856C74.6863 42.8856 72.1444 36.7879 71.7669 35.6859C71.3894 34.5839 70.6307 32.5004 70.2514 30.1994C69.8721 27.8984 69.5216 25.4212 68.7162 25.4284C68.7162 25.4284 67.8857 25.0688 67.8857 26.5447C67.8857 26.5447 66.1419 27.4436 66.399 29.3455C66.6561 31.2474 66.8934 32.2308 66.8251 33.3004C66.7567 34.37 67.1001 38.084 67.9594 39.2489C67.9594 39.2489 68.247 44.4621 68.6785 45.8194C68.6928 45.8607 68.7054 45.8985 68.718 45.9326C69.171 47.0814 64.6445 51.5054 62.1942 52.7027C62.1942 52.7027 61.9372 53.1809 60.9862 53.0496C60.0352 52.9184 58.4263 52.8573 58.1495 52.1508C57.8726 51.4443 56.03 45.9326 56.03 45.9326C56.03 45.9326 54.5397 38.8678 51.5628 38.8696C51.5628 38.8696 51.1116 37.791 49.9449 38.3806C48.7782 38.9702 49.5422 42.1845 50.0581 43.9426C50.5741 45.7007 51.881 50.3226 52.0931 52.4492C52.3052 54.5759 51.1008 58.8364 51.5538 60.5118C52.0068 62.1872 52.5102 63.318 53.9555 66.0612C55.4008 68.8045 58.6025 76.9839 59.1184 79.3694Z" fill="white"/>
<path d="M59.1183 79.3694C59.1183 79.3694 56.846 70.816 53.5059 65.2846C50.1659 59.7531 52.1307 57.7972 52.1307 53.1934C52.1307 48.5896 48.379 40.7517 49.3911 39.0241C50.4031 37.2966 51.7838 38.679 52.3608 40.2915C52.9379 41.904 52.1307 42.8262 50.5128 42.9413" stroke="#263238" stroke-width="0.179768" stroke-linecap="round" stroke-linejoin="round"/>
<path d="M51.5625 38.8767C51.5625 38.8767 53.5022 38.7581 54.6941 41.859C55.8859 44.96 57.795 52.8249 59.7833 55.2176" stroke="#263238" stroke-width="0.179768" stroke-linecap="round" stroke-linejoin="round"/>
<path d="M58.2139 52.3126C58.2247 52.3378 60.9913 53.8802 65.2841 52.5283" stroke="#263238" stroke-width="0.179768" stroke-linecap="round" stroke-linejoin="round"/>
<path d="M51.9312 47.9783C52.1468 47.7144 52.4281 47.5119 52.7468 47.391C53.0655 47.2702 53.4104 47.2353 53.7468 47.2898" stroke="#263238" stroke-width="0.179768" stroke-linecap="round" stroke-linejoin="round"/>
<path d="M52.2998 48.9545C52.4862 48.7316 52.7316 48.5657 53.0078 48.4757C53.2841 48.3858 53.5801 48.3754 53.862 48.4457" stroke="#263238" stroke-width="0.179768" stroke-linecap="round" stroke-linejoin="round"/>
<path d="M67.8858 26.5393C65.0634 27.4795 67.1667 31.7418 66.8251 33.2968C66.4836 34.8518 67.3644 37.8287 68.0422 39.443C68.0422 41.336 68.7163 45.929 68.7163 45.929C68.2992 47.3906 64.8189 51.6978 61.4375 53.046" stroke="#263238" stroke-width="0.179768" stroke-linecap="round" stroke-linejoin="round"/>
<path d="M69.9565 28.6858C69.9565 28.6858 69.7462 25.423 68.7162 25.423C67.6861 25.423 67.749 27.6215 68.1768 29.2538C68.6047 30.8861 70.2693 30.6524 69.9565 28.6858Z" stroke="#263238" stroke-width="0.179768" stroke-linecap="round" stroke-linejoin="round"/>
<path d="M69.9565 28.6857C69.9565 28.6857 70.8338 33.8144 72.3205 37.0359" stroke="#263238" stroke-width="0.179768" stroke-linecap="round" stroke-linejoin="round"/>
<path d="M74.073 49.048C74.7921 47.8831 75.1103 46.7811 75.3764 45.3789C75.3098 44.4999 74.2978 41.6308 73.1221 38.8516" stroke="#263238" stroke-width="0.179768" stroke-linecap="round" stroke-linejoin="round"/>
<path d="M74.7817 43.157C75.9484 44.0342 77.978 44.7084 77.7443 46.222C77.4864 47.7362 76.9566 49.1912 76.1803 50.5167" stroke="#263238" stroke-width="0.179768" stroke-linecap="round" stroke-linejoin="round"/>
<path d="M73.2067 75.3049C73.2067 75.3049 69.1421 69.6619 69.9565 65.7646C70.5551 62.8973 74.4039 57.8836 77.1652 53.7309C78.686 52.3126 79.4464 51.2142 79.779 49.936C79.2918 47.5361 78.5008 46.8369 77.7404 46.222" stroke="#263238" stroke-width="0.179768" stroke-linecap="round" stroke-linejoin="round"/>
<path d="M74.2906 44.0882C73.8379 43.9609 73.3638 43.9279 72.8978 43.9913C72.4319 44.0547 71.9838 44.2131 71.5815 44.4567" stroke="#263238" stroke-width="0.179768" stroke-linecap="round" stroke-linejoin="round"/>
<path d="M74.0622 45.0535C73.5101 44.9699 72.9457 45.069 72.4551 45.3358" stroke="#263238" stroke-width="0.179768" stroke-linecap="round" stroke-linejoin="round"/>
</g>
</g>
<defs>
<clipPath id="clip0_2041_726">
<rect width="79.99" height="79.99" fill="white"/>
</clipPath>
<clipPath id="clip1_2041_726">
<rect width="85" height="80" fill="white"/>
</clipPath>
</defs>
</svg>
